:SAMPLES-PER-SECOND 30
:FULLY-SPECIFIED
:DEGREES
589
root  -58.0758 40.4578 -16.0263 -72.5001 -82.9404 73.5305
RightUpLeg  2.67822 -15.53 -14.2871
RightLeg  9.48608 -12.0254 0.881285
RightFoot  -7.56482 -0.252317 6.08634
RightToes  -1.74624e-010 0 -3.6325e-017
Spine  6.92159 1.25591 18.7126
Spine1  3.68504 4.19727 -10.1926
HEad  -6.89114 -2.98955 -17.5747
LeftShoulder1  -0.705114 5.30697 -32.9386
LeftArm  3.51193 16.4487 -38.9655
LeftForeArm  25.6313 -28.7781 -4.79574
LeftHand  -0.0326004 6.12626 0.085581
RightShoulder  -1.40902 -6.93597 34.5001
RightArm  4.47935 -0.133894 39.9163
RightForeArm  7.55016 12.1614 3.60472
RightHand  -0.291864 6.0708 -3.29817
LeftUpLeg  -14.3578 6.40427 3.18792
LeftLeg  5.10373 4.12649 -0.348974
LeftFoot  -0.797443 0.63906 -6.88314
LeftToes  -3.96543e-010 8.93632e-011 -2.58531e-011
590
root  -58.5065 40.3722 -15.6622 -56.0691 -82.7062 57.1114
RightUpLeg  4.17687 -15.3505 -14.2896
RightLeg  8.94757 -13.7792 0.843729
RightFoot  -7.78141 -0.275311 7.14309
RightToes  -1.74624e-010 0 -3.6325e-017
Spine  6.25866 1.37796 18.1326
Spine1  4.21863 4.20246 -10.0081
HEad  -7.86146 -1.79874 -16.6801
LeftShoulder1  -0.783673 5.48089 -33.4727
LeftArm  2.72682 17.0379 -38.555
LeftForeArm  24.1349 -23.6696 -4.03108
LeftHand  -0.0325495 5.70654 0.117578
RightShoulder  -1.56665 -7.23995 35.3595
RightArm  1.44824 -2.96818 44.1328
RightForeArm  6.58024 12.9207 2.88776
RightHand  -0.347983 5.22049 -4.1045
LeftUpLeg  -13.992 5.50499 3.69658
LeftLeg  1.99067 6.14907 -0.122787
LeftFoot  1.13906 0.650256 -5.99092
LeftToes  -3.96543e-010 8.93632e-011 -2.58531e-011
591
root  -59.0062 40.24 -15.1723 -42.7173 -82.3249 43.3309
RightUpLeg  6.16523 -15.1744 -14.404
RightLeg  8.52704 -15.0583 0.802657
RightFoot  -8.07999 -0.293498 8.37448
RightToes  -1.74624e-010 0 -3.6325e-017
Spine  5.97386 1.3112 17.4126
Spine1  4.49048 4.00332 -9.51579
HEad  -8.60609 -0.805471 -15.7576
LeftShoulder1  -0.874737 5.70656 -33.5372
LeftArm  -0.133447 17.9044 -37.8881
LeftForeArm  24.871 -18.0623 -4.8046
LeftHand  -0.040901 6.27694 -0.273228
RightShoulder  -1.6338 -7.37709 35.604
RightArm  0.66455 -4.8198 46.5074
RightForeArm  4.36361 13.9929 2.86785
RightHand  -0.364269 5.79089 -4.10464
LeftUpLeg  -13.6832 5.65861 3.93659
LeftLeg  1.88214 8.99206 0.323654
LeftFoot  1.04139 0.531455 -4.94872
LeftToes  -3.96543e-010 8.93632e-011 -2.58531e-011
592
root  -59.5279 40.0686 -14.5218 -35.6271 -81.9845 35.9338
RightUpLeg  7.56888 -15.6133 -15.339
RightLeg  8.98653 -14.9061 0.836097
RightFoot  -8.51669 -0.300234 9.79418
RightToes  -1.74624e-010 0 -3.6325e-017
Spine  5.77736 1.24056 16.7554
Spine1  4.4739 3.92817 -9.65788
HEad  -8.9491 0.629214 -14.4771
LeftShoulder1  -0.870236 5.70109 -33.4212
LeftArm  -6.03065 19.3032 -37.1274
LeftForeArm  29.4705 -12.2567 -6.07155
LeftHand  -0.0305789 6.19257 0.706552
RightShoulder  -1.53664 -7.18104 35.2123
RightArm  4.55172 -4.80655 46.5181
RightForeArm  6.46332 14.9448 3.71723
RightHand  -0.35885 6.40886 -3.86233
LeftUpLeg  -13.3633 5.96859 3.66975
LeftLeg  3.35142 13.2185 0.760125
LeftFoot  2.0863 0.428989 -3.78612
LeftToes  -3.96543e-010 8.93632e-011 -2.58531e-011
593
root  -60.0896 39.9153 -13.7818 -33.5016 -81.7071 33.6561
RightUpLeg  8.92124 -16.6309 -17.0223
RightLeg  9.22281 -13.5751 0.883547
RightFoot  -8.74611 -0.318236 11.3765
RightToes  -1.74624e-010 0 -3.6325e-017
Spine  5.17876 1.36018 15.7965
Spine1  4.88266 4.16266 -10.4217
HEad  -9.33593 1.95353 -12.9926
LeftShoulder1  -0.807191 5.58858 -32.5614
LeftArm  -9.56567 20.9452 -37.2945
LeftForeArm  33.2217 -7.81754 -5.55527
LeftHand  -0.0740735 7.63719 -1.54293
RightShoulder  -1.39634 -6.90977 34.4158
RightArm  9.39116 -3.43871 45.487
RightForeArm  10.5518 15.1253 4.42982
RightHand  -0.363583 6.20357 -3.97858
LeftUpLeg  -13.4425 6.59522 2.90787
LeftLeg  5.98746 15.5932 1.13731
LeftFoot  4.7972 0.217553 -1.75662
LeftToes  -3.96543e-010 8.93632e-011 -2.58531e-011
594
root  -60.643 39.7411 -12.9624 -31.5044 -80.9457 31.4639
RightUpLeg  10.2002 -18.319 -19.2346
RightLeg  10.0885 -11.6621 0.464349
RightFoot  -8.85806 -0.360746 13.8395
RightToes  -1.74624e-010 0 -3.6325e-017
Spine  4.433 1.43237 14.1896
Spine1  5.55569 4.13466 -10.3213
HEad  -10.3078 3.17251 -11.4222
LeftShoulder1  -0.794095 5.52551 -33.1128
LeftArm  -9.71236 21.4854 -36.3583
LeftForeArm  35.2647 -4.35924 -4.98842
LeftHand  -0.125224 8.33183 -3.01594
RightShoulder  -1.26043 -6.66538 33.3251
RightArm  13.3307 -1.92871 43.7048
RightForeArm  12.6541 15.852 4.8426
RightHand  -0.379156 5.45521 -4.35904
LeftUpLeg  -14.3244 8.09846 1.64402
LeftLeg  9.40039 13.4542 1.29248
LeftFoot  5.8775 -0.00111362 -0.194727
LeftToes  -3.96543e-010 8.93632e-011 -2.58531e-011
595
root  -61.1939 39.5509 -12.0513 -32.7855 -79.137 31.7897
RightUpLeg  12.0703 -21.2775 -23.3006
RightLeg  12.3517 -8.45284 -0.423679
RightFoot  -8.73683 -0.453606 17.1691
RightToes  -1.74624e-010 0 -3.6325e-017
Spine  4.67253 1.1173 12.1902
Spine1  6.10846 3.854 -10.5363
HEad  -11 3.70015 -10.2845
LeftShoulder1  -0.729657 5.35286 -33.2891
LeftArm  -9.28187 21.9559 -35.7567
LeftForeArm  37.7437 -3.34835 -5.11795
LeftHand  -0.13435 8.51489 -3.07063
RightShoulder  -1.23847 -6.66115 32.6573
RightArm  14.3503 -0.88949 41.3417
RightForeArm  11.6347 16.7712 4.76273
RightHand  -0.30621 5.3396 -3.62105
LeftUpLeg  -15.0367 9.92949 -1.37042
LeftLeg  14.6445 10.0969 2.53319
LeftFoot  2.52896 -0.108802 0.762803
LeftToes  -3.96543e-010 8.93632e-011 -2.58531e-011
